<svg xmlns="http://www.w3.org/2000/svg" width="927" height="620" style="width: 927px; height: 620px;"><defs id="defs_119"/><path opacity="1" stroke-width="1" stroke-opacity="1" fill-opacity="1" d="M 0,0 l 927,0 l 0,620 l-927 0 z" fill="#ffffff" stroke="none"/><g opacity="1" transform="matrix(1,0,0,1,10,10)"><g opacity="1" class="actor"><line opacity="1" stroke-width="1" stroke-opacity="1" fill-opacity="1" x1="40" y1="55.5" x2="40" y2="540" stroke="#03B59C" class="actor__line"/><g opacity="1"><circle opacity="1" stroke-width="1.5" stroke-opacity="1" fill-opacity="1" cx="40" cy="7.8" r="7.8" width="54.599999999999994" height="39" stroke="#4492FD" fill="#8BBBFD"/><path opacity="1" stroke-width="1.5" stroke-opacity="1" fill-opacity="1" d="M 28.3 22.1L 51.7 22.1M 40 15.6L 40 27.3l -7.8 15.6l 7.8 -15.6l 7.8 15.6" stroke="#4492FD" fill="none"/></g><text dominant-baseline="central" text-anchor="middle" opacity="1" stroke-width="1" stroke-opacity="1" fill-opacity="1" x="40" y="48.5" font-size="16" font-family="Source Code Pro, sans-serif" font-style="normal" font-weight="400" font-variant="normal" fill="#272827" paint-order="stroke" style="stroke-linecap:butt; stroke-linejoin:miter;" stroke="none">User</text></g><g opacity="1" class="actor"><line opacity="1" stroke-width="1" stroke-opacity="1" fill-opacity="1" x1="434.79998779296875" y1="50" x2="434.79998779296875" y2="540" stroke="#03B59C" class="actor__line"/><path opacity="1" stroke-width="1" stroke-opacity="1" fill-opacity="1" d="M 371.19998931884766,0 l 127.19999694824219,0 a 4,4,0,0,1,4,4 l 0,42 a 4,4,0,0,1,-4,4 l -127.19999694824219,0 a 4,4,0,0,1,-4,-4 l 0,-42 a 4,4,0,0,1,4,-4 z" fill="#8BBBFD" stroke="#4492FD"/><text dominant-baseline="central" text-anchor="middle" opacity="1" stroke-width="1" stroke-opacity="1" fill-opacity="1" x="434.79998779296875" y="25" font-size="16" font-family="Source Code Pro, sans-serif" font-style="normal" font-weight="400" font-variant="normal" fill="#272827" paint-order="stroke" style="stroke-linecap:butt; stroke-linejoin:miter;" stroke="none">Consumer App</text></g><g opacity="1" class="actor"><line opacity="1" stroke-width="1" stroke-opacity="1" fill-opacity="1" x1="858.3999938964844" y1="50" x2="858.3999938964844" y2="540" stroke="#03B59C" class="actor__line"/><path opacity="1" stroke-width="1" stroke-opacity="1" fill-opacity="1" d="M 813.9999923706055,0 l 88.80000305175781,0 a 4,4,0,0,1,4,4 l 0,42 a 4,4,0,0,1,-4,4 l -88.80000305175781,0 a 4,4,0,0,1,-4,-4 l 0,-42 a 4,4,0,0,1,4,-4 z" fill="#8BBBFD" stroke="#4492FD"/><text dominant-baseline="central" text-anchor="middle" opacity="1" stroke-width="1" stroke-opacity="1" fill-opacity="1" x="858.3999938964844" y="25" font-size="16" font-family="Source Code Pro, sans-serif" font-style="normal" font-weight="400" font-variant="normal" fill="#272827" paint-order="stroke" style="stroke-linecap:butt; stroke-linejoin:miter;" stroke="none">Provider</text></g><g opacity="1" class="activations"><path opacity="1" stroke-width="1" stroke-opacity="1" fill-opacity="1" d="M 429.79998779296875,90 l 10,0 l 0,116 l-10 0 z" fill="#EDF4FF" stroke="#4492FD" rx="0" ry="0" class="activation"/><path opacity="1" stroke-width="1" stroke-opacity="1" fill-opacity="1" d="M 853.3999938964844,246 l 10,0 l 0,110 l-10 0 z" fill="#EDF4FF" stroke="#4492FD" rx="0" ry="0" class="activation"/><path opacity="1" stroke-width="1" stroke-opacity="1" fill-opacity="1" d="M 853.3999938964844,438 l 10,0 l 0,40 l-10 0 z" fill="#EDF4FF" stroke="#4492FD" rx="0" ry="0" class="activation"/><path opacity="1" stroke-width="1" stroke-opacity="1" fill-opacity="1" d="M 429.79998779296875,400 l 10,0 l 0,120 l-10 0 z" fill="#EDF4FF" stroke="#4492FD" rx="0" ry="0" class="activation"/><path opacity="1" stroke-width="1" stroke-opacity="1" fill-opacity="1" d="M 35,92 l 10,0 l 0,428 l-10 0 z" fill="#EDF4FF" stroke="#4492FD" rx="0" ry="0" class="activation"/></g><g opacity="1" class="message"><line opacity="1" stroke-width="2" stroke-opacity="1" fill-opacity="1" x1="40" y1="90" x2="434.79998779296875" y2="90" stroke="#272827" class="message__line"/><path opacity="1" stroke-width="1" stroke-opacity="1" fill-opacity="1" x="426.1397337551244" y="90" fill="#272827" d="M 426.1397337551244 85L 426.1397337551244 95L 434.79998779296875 90Z" stroke="none" transform="matrix(1,0,0,1,0,0)"/><text dominant-baseline="text-before-edge" text-anchor="middle" opacity="1" stroke-width="1" stroke-opacity="1" fill-opacity="1" x="247.39999389648438" y="60" font-size="16" font-family="Source Code Pro, sans-serif" font-style="normal" font-weight="400" font-variant="normal" fill="#272827" width="414.79998779296875" paint-order="stroke" style="stroke-linecap:butt; stroke-linejoin:miter;" stroke="none" class="message__text">I want to login with "Provider"</text></g><g opacity="1" class="message"><line opacity="1" stroke-width="2" stroke-opacity="1" fill-opacity="1" x1="439.79998779296875" y1="128" x2="858.3999938964844" y2="128" stroke="#272827" class="message__line"/><path opacity="1" stroke-width="1" stroke-opacity="1" fill-opacity="1" x="849.73973985864" y="128" fill="#272827" d="M 849.73973985864 123L 849.73973985864 133L 858.3999938964844 128Z" stroke="none" transform="matrix(1,0,0,1,0,0)"/><text dominant-baseline="text-before-edge" text-anchor="middle" opacity="1" stroke-width="1" stroke-opacity="1" fill-opacity="1" x="649.0999908447266" y="100" font-size="16" font-family="Source Code Pro, sans-serif" font-style="normal" font-weight="400" font-variant="normal" fill="#272827" width="438.6000061035156" paint-order="stroke" style="stroke-linecap:butt; stroke-linejoin:miter;" stroke="none" class="message__text">Gimme a request token</text></g><g opacity="1" class="message"><line opacity="1" stroke-width="2" stroke-opacity="1" fill-opacity="1" x1="858.3999938964844" y1="168" x2="439.79998779296875" y2="168" stroke="#272827" stroke-dasharray="3,3" class="message__line"/><path opacity="1" stroke-width="1" stroke-opacity="1" fill-opacity="1" x="431.1397337551244" y="168" fill="#272827" d="M 431.1397337551244 163L 431.1397337551244 173L 439.79998779296875 168Z" stroke="none" transform="matrix(-1,-1.2246467991473532e-16,1.2246467991473532e-16,-1,879.5999755859375,336.00000000000006)"/><text dominant-baseline="text-before-edge" text-anchor="middle" opacity="1" stroke-width="1" stroke-opacity="1" fill-opacity="1" x="649.0999908447266" y="138" font-size="16" font-family="Source Code Pro, sans-serif" font-style="normal" font-weight="400" font-variant="normal" fill="#272827" width="438.6000061035156" paint-order="stroke" style="stroke-linecap:butt; stroke-linejoin:miter;" stroke="none" class="message__text">Here's your request token</text></g><g opacity="1" class="message"><line opacity="1" stroke-width="2" stroke-opacity="1" fill-opacity="1" x1="429.79998779296875" y1="206" x2="45" y2="206" stroke="#272827" stroke-dasharray="3,3" class="message__line"/><path opacity="1" stroke-width="1" stroke-opacity="1" fill-opacity="1" x="36.33974596215562" y="206" fill="#272827" d="M 36.33974596215562 201L 36.33974596215562 211L 45 206Z" stroke="none" transform="matrix(-1,-1.2246467991473532e-16,1.2246467991473532e-16,-1,89.99999999999997,412)"/><text dominant-baseline="text-before-edge" text-anchor="middle" opacity="1" stroke-width="1" stroke-opacity="1" fill-opacity="1" x="237.39999389648438" y="178" font-size="16" font-family="Source Code Pro, sans-serif" font-style="normal" font-weight="400" font-variant="normal" fill="#272827" width="404.79998779296875" paint-order="stroke" style="stroke-linecap:butt; stroke-linejoin:miter;" stroke="none" class="message__text">Go to this URL with this request token</text></g><g opacity="1" class="message"><line opacity="1" stroke-width="2" stroke-opacity="1" fill-opacity="1" x1="45" y1="244" x2="858.3999938964844" y2="244" stroke="#272827" class="message__line"/><path opacity="1" stroke-width="1" stroke-opacity="1" fill-opacity="1" x="849.73973985864" y="244" fill="#272827" d="M 849.73973985864 239L 849.73973985864 249L 858.3999938964844 244Z" stroke="none" transform="matrix(1,0,0,1,0,0)"/><text dominant-baseline="text-before-edge" text-anchor="middle" opacity="1" stroke-width="1" stroke-opacity="1" fill-opacity="1" x="451.6999969482422" y="216" font-size="16" font-family="Source Code Pro, sans-serif" font-style="normal" font-weight="400" font-variant="normal" fill="#272827" width="833.3999938964844" paint-order="stroke" style="stroke-linecap:butt; stroke-linejoin:miter;" stroke="none" class="message__text">I want to login to Consumer App</text></g><g opacity="1" class="message"><line opacity="1" stroke-width="2" stroke-opacity="1" fill-opacity="1" x1="853.3999938964844" y1="284" x2="45" y2="284" stroke="#272827" stroke-dasharray="3,3" class="message__line"/><path opacity="1" stroke-width="1" stroke-opacity="1" fill-opacity="1" x="36.33974596215562" y="284" fill="#272827" d="M 36.33974596215562 279L 36.33974596215562 289L 45 284Z" stroke="none" transform="matrix(-1,-1.2246467991473532e-16,1.2246467991473532e-16,-1,89.99999999999997,568)"/><text dominant-baseline="text-before-edge" text-anchor="middle" opacity="1" stroke-width="1" stroke-opacity="1" fill-opacity="1" x="449.1999969482422" y="254" font-size="16" font-family="Source Code Pro, sans-serif" font-style="normal" font-weight="400" font-variant="normal" fill="#272827" width="828.3999938964844" paint-order="stroke" style="stroke-linecap:butt; stroke-linejoin:miter;" stroke="none" class="message__text">Sure, do you approve these permissions for Consumer App?</text></g><g opacity="1" class="message"><line opacity="1" stroke-width="2" stroke-opacity="1" fill-opacity="1" x1="45" y1="316" x2="853.3999938964844" y2="316" stroke="#272827" class="message__line"/><path opacity="1" stroke-width="1" stroke-opacity="1" fill-opacity="1" x="844.73973985864" y="316" fill="#272827" d="M 844.73973985864 311L 844.73973985864 321L 853.3999938964844 316Z" stroke="none" transform="matrix(1,0,0,1,0,0)"/><text dominant-baseline="text-before-edge" text-anchor="middle" opacity="1" stroke-width="1" stroke-opacity="1" fill-opacity="1" x="449.1999969482422" y="294" font-size="16" font-family="Source Code Pro, sans-serif" font-style="normal" font-weight="400" font-variant="normal" fill="#272827" width="828.3999938964844" paint-order="stroke" style="stroke-linecap:butt; stroke-linejoin:miter;" stroke="none" class="message__text">Yes!</text></g><g opacity="1" class="message"><line opacity="1" stroke-width="2" stroke-opacity="1" fill-opacity="1" x1="853.3999938964844" y1="356" x2="45" y2="356" stroke="#272827" stroke-dasharray="3,3" class="message__line"/><path opacity="1" stroke-width="1" stroke-opacity="1" fill-opacity="1" x="36.33974596215562" y="356" fill="#272827" d="M 36.33974596215562 351L 36.33974596215562 361L 45 356Z" stroke="none" transform="matrix(-1,-1.2246467991473532e-16,1.2246467991473532e-16,-1,89.99999999999996,712)"/><text dominant-baseline="text-before-edge" text-anchor="middle" opacity="1" stroke-width="1" stroke-opacity="1" fill-opacity="1" x="449.1999969482422" y="326" font-size="16" font-family="Source Code Pro, sans-serif" font-style="normal" font-weight="400" font-variant="normal" fill="#272827" width="828.3999938964844" paint-order="stroke" style="stroke-linecap:butt; stroke-linejoin:miter;" stroke="none" class="message__text">OK, just go back to this URL</text></g><g opacity="1" class="message"><line opacity="1" stroke-width="2" stroke-opacity="1" fill-opacity="1" x1="45" y1="398" x2="434.79998779296875" y2="398" stroke="#272827" class="message__line"/><path opacity="1" stroke-width="1" stroke-opacity="1" fill-opacity="1" x="426.1397337551244" y="398" fill="#272827" d="M 426.1397337551244 393L 426.1397337551244 403L 434.79998779296875 398Z" stroke="none" transform="matrix(1,0,0,1,0,0)"/><text dominant-baseline="text-before-edge" text-anchor="middle" opacity="1" stroke-width="1" stroke-opacity="1" fill-opacity="1" x="239.89999389648438" y="366" font-size="16" font-family="Source Code Pro, sans-serif" font-style="normal" font-weight="400" font-variant="normal" fill="#272827" width="409.79998779296875" paint-order="stroke" style="stroke-linecap:butt; stroke-linejoin:miter;" stroke="none" class="message__text">OK, I'm done</text></g><g opacity="1" class="message"><line opacity="1" stroke-width="2" stroke-opacity="1" fill-opacity="1" x1="439.79998779296875" y1="436" x2="858.3999938964844" y2="436" stroke="#272827" class="message__line"/><path opacity="1" stroke-width="1" stroke-opacity="1" fill-opacity="1" x="849.73973985864" y="436" fill="#272827" d="M 849.73973985864 431L 849.73973985864 441L 858.3999938964844 436Z" stroke="none" transform="matrix(1,0,0,1,0,0)"/><text dominant-baseline="text-before-edge" text-anchor="middle" opacity="1" stroke-width="1" stroke-opacity="1" fill-opacity="1" x="649.0999908447266" y="408" font-size="16" font-family="Source Code Pro, sans-serif" font-style="normal" font-weight="400" font-variant="normal" fill="#272827" width="438.6000061035156" paint-order="stroke" style="stroke-linecap:butt; stroke-linejoin:miter;" stroke="none" class="message__text">That request token should be approved now</text></g><g opacity="1" class="message"><line opacity="1" stroke-width="2" stroke-opacity="1" fill-opacity="1" x1="853.3999938964844" y1="478" x2="439.79998779296875" y2="478" stroke="#272827" stroke-dasharray="3,3" class="message__line"/><path opacity="1" stroke-width="1" stroke-opacity="1" fill-opacity="1" x="431.1397337551244" y="478" fill="#272827" d="M 431.1397337551244 473L 431.1397337551244 483L 439.79998779296875 478Z" stroke="none" transform="matrix(-1,-1.2246467991473532e-16,1.2246467991473532e-16,-1,879.5999755859375,956)"/><text dominant-baseline="text-before-edge" text-anchor="middle" opacity="1" stroke-width="1" stroke-opacity="1" fill-opacity="1" x="646.5999908447266" y="446" font-size="16" font-family="Source Code Pro, sans-serif" font-style="normal" font-weight="400" font-variant="normal" fill="#272827" width="433.6000061035156" paint-order="stroke" style="stroke-linecap:butt; stroke-linejoin:miter;" stroke="none" class="message__text">Yes it is, here's the access token</text></g><g opacity="1" class="message"><line opacity="1" stroke-width="2" stroke-opacity="1" fill-opacity="1" x1="429.79998779296875" y1="520" x2="45" y2="520" stroke="#272827" stroke-dasharray="3,3" class="message__line"/><path opacity="1" stroke-width="1" stroke-opacity="1" fill-opacity="1" x="36.33974596215562" y="520" fill="#272827" d="M 36.33974596215562 515L 36.33974596215562 525L 45 520Z" stroke="none" transform="matrix(-1,-1.2246467991473532e-16,1.2246467991473532e-16,-1,89.99999999999994,1040)"/><text dominant-baseline="text-before-edge" text-anchor="middle" opacity="1" stroke-width="1" stroke-opacity="1" fill-opacity="1" x="237.39999389648438" y="488" font-size="16" font-family="Source Code Pro, sans-serif" font-style="normal" font-weight="400" font-variant="normal" fill="#272827" width="404.79998779296875" paint-order="stroke" style="stroke-linecap:butt; stroke-linejoin:miter;" stroke="none" class="message__text">OK, you're logged in!</text></g><g opacity="1" class="actor"><g opacity="1"><circle opacity="1" stroke-width="1.5" stroke-opacity="1" fill-opacity="1" cx="40" cy="547.8" r="7.8" width="54.599999999999994" height="39" stroke="#4492FD" fill="#8BBBFD"/><path opacity="1" stroke-width="1.5" stroke-opacity="1" fill-opacity="1" d="M 28.3 562.1L 51.7 562.1M 40 555.6L 40 567.3l -7.8 15.6l 7.8 -15.6l 7.8 15.6" stroke="#4492FD" fill="none"/></g><text dominant-baseline="central" text-anchor="middle" opacity="1" stroke-width="1" stroke-opacity="1" fill-opacity="1" x="40" y="588.5" font-size="16" font-family="Source Code Pro, sans-serif" font-style="normal" font-weight="400" font-variant="normal" fill="#272827" paint-order="stroke" style="stroke-linecap:butt; stroke-linejoin:miter;" stroke="none">User</text></g><g opacity="1" class="actor"><path opacity="1" stroke-width="1" stroke-opacity="1" fill-opacity="1" d="M 371.19998931884766,540 l 127.19999694824219,0 a 4,4,0,0,1,4,4 l 0,42 a 4,4,0,0,1,-4,4 l -127.19999694824219,0 a 4,4,0,0,1,-4,-4 l 0,-42 a 4,4,0,0,1,4,-4 z" fill="#8BBBFD" stroke="#4492FD"/><text dominant-baseline="central" text-anchor="middle" opacity="1" stroke-width="1" stroke-opacity="1" fill-opacity="1" x="434.79998779296875" y="565" font-size="16" font-family="Source Code Pro, sans-serif" font-style="normal" font-weight="400" font-variant="normal" fill="#272827" paint-order="stroke" style="stroke-linecap:butt; stroke-linejoin:miter;" stroke="none">Consumer App</text></g><g opacity="1" class="actor"><path opacity="1" stroke-width="1" stroke-opacity="1" fill-opacity="1" d="M 813.9999923706055,540 l 88.80000305175781,0 a 4,4,0,0,1,4,4 l 0,42 a 4,4,0,0,1,-4,4 l -88.80000305175781,0 a 4,4,0,0,1,-4,-4 l 0,-42 a 4,4,0,0,1,4,-4 z" fill="#8BBBFD" stroke="#4492FD"/><text dominant-baseline="central" text-anchor="middle" opacity="1" stroke-width="1" stroke-opacity="1" fill-opacity="1" x="858.3999938964844" y="565" font-size="16" font-family="Source Code Pro, sans-serif" font-style="normal" font-weight="400" font-variant="normal" fill="#272827" paint-order="stroke" style="stroke-linecap:butt; stroke-linejoin:miter;" stroke="none">Provider</text></g></g></svg>