<svg xmlns="http://www.w3.org/2000/svg" width="927" height="540" style="width: 927px; height: 540px;"><defs id="defs_108"/><path opacity="1" stroke-width="1" stroke-opacity="1" fill-opacity="1" d="M 0,0 l 927,0 l 0,540 l-927 0 z" fill="#ffffff" stroke="none"/><g opacity="1" transform="matrix(1,0,0,1,10,10)"><g opacity="1" class="actor"><line opacity="1" stroke-width="1" stroke-opacity="1" fill-opacity="1" x1="40" y1="55.5" x2="40" y2="460" stroke="#03B59C" class="actor__line"/><g opacity="1"><circle opacity="1" stroke-width="1.5" stroke-opacity="1" fill-opacity="1" cx="40" cy="7.8" r="7.8" width="54.599999999999994" height="39" stroke="#4492FD" fill="#8BBBFD"/><path opacity="1" stroke-width="1.5" stroke-opacity="1" fill-opacity="1" d="M 28.3 22.1L 51.7 22.1M 40 15.6L 40 27.3l -7.8 15.6l 7.8 -15.6l 7.8 15.6" stroke="#4492FD" fill="none"/></g><text dominant-baseline="central" text-anchor="middle" opacity="1" stroke-width="1" stroke-opacity="1" fill-opacity="1" x="40" y="48.5" font-size="16" font-family="Source Code Pro, sans-serif" font-style="normal" font-weight="400" font-variant="normal" fill="#272827" paint-order="stroke" style="stroke-linecap:butt; stroke-linejoin:miter;" stroke="none">User</text></g><g opacity="1" class="actor"><line opacity="1" stroke-width="1" stroke-opacity="1" fill-opacity="1" x1="367.6000061035156" y1="50" x2="367.6000061035156" y2="460" stroke="#03B59C" class="actor__line"/><path opacity="1" stroke-width="1" stroke-opacity="1" fill-opacity="1" d="M 304.00000762939453,0 l 127.19999694824219,0 a 4,4,0,0,1,4,4 l 0,42 a 4,4,0,0,1,-4,4 l -127.19999694824219,0 a 4,4,0,0,1,-4,-4 l 0,-42 a 4,4,0,0,1,4,-4 z" fill="#8BBBFD" stroke="#4492FD"/><text dominant-baseline="central" text-anchor="middle" opacity="1" stroke-width="1" stroke-opacity="1" fill-opacity="1" x="367.6000061035156" y="25" font-size="16" font-family="Source Code Pro, sans-serif" font-style="normal" font-weight="400" font-variant="normal" fill="#272827" paint-order="stroke" style="stroke-linecap:butt; stroke-linejoin:miter;" stroke="none">Consumer App</text></g><g opacity="1" class="actor"><line opacity="1" stroke-width="1" stroke-opacity="1" fill-opacity="1" x1="858.3999938964844" y1="50" x2="858.3999938964844" y2="460" stroke="#03B59C" class="actor__line"/><path opacity="1" stroke-width="1" stroke-opacity="1" fill-opacity="1" d="M 813.9999923706055,0 l 88.80000305175781,0 a 4,4,0,0,1,4,4 l 0,42 a 4,4,0,0,1,-4,4 l -88.80000305175781,0 a 4,4,0,0,1,-4,-4 l 0,-42 a 4,4,0,0,1,4,-4 z" fill="#8BBBFD" stroke="#4492FD"/><text dominant-baseline="central" text-anchor="middle" opacity="1" stroke-width="1" stroke-opacity="1" fill-opacity="1" x="858.3999938964844" y="25" font-size="16" font-family="Source Code Pro, sans-serif" font-style="normal" font-weight="400" font-variant="normal" fill="#272827" paint-order="stroke" style="stroke-linecap:butt; stroke-linejoin:miter;" stroke="none">Provider</text></g><g opacity="1" class="activations"><path opacity="1" stroke-width="1" stroke-opacity="1" fill-opacity="1" d="M 362.6000061035156,90 l 10,0 l 0,32 l-10 0 z" fill="#EDF4FF" stroke="#4492FD" rx="0" ry="0" class="activation"/><path opacity="1" stroke-width="1" stroke-opacity="1" fill-opacity="1" d="M 853.3999938964844,162 l 10,0 l 0,112 l-10 0 z" fill="#EDF4FF" stroke="#4492FD" rx="0" ry="0" class="activation"/><path opacity="1" stroke-width="1" stroke-opacity="1" fill-opacity="1" d="M 853.3999938964844,358 l 10,0 l 0,40 l-10 0 z" fill="#EDF4FF" stroke="#4492FD" rx="0" ry="0" class="activation"/><path opacity="1" stroke-width="1" stroke-opacity="1" fill-opacity="1" d="M 362.6000061035156,316 l 10,0 l 0,124 l-10 0 z" fill="#EDF4FF" stroke="#4492FD" rx="0" ry="0" class="activation"/><path opacity="1" stroke-width="1" stroke-opacity="1" fill-opacity="1" d="M 35,92 l 10,0 l 0,348 l-10 0 z" fill="#EDF4FF" stroke="#4492FD" rx="0" ry="0" class="activation"/></g><g opacity="1" class="message"><line opacity="1" stroke-width="2" stroke-opacity="1" fill-opacity="1" x1="40" y1="90" x2="367.6000061035156" y2="90" stroke="#272827" class="message__line"/><path opacity="1" stroke-width="1" stroke-opacity="1" fill-opacity="1" x="358.93975206567126" y="90" fill="#272827" d="M 358.93975206567126 85L 358.93975206567126 95L 367.6000061035156 90Z" stroke="none" transform="matrix(1,0,0,1,0,0)"/><text dominant-baseline="text-before-edge" text-anchor="middle" opacity="1" stroke-width="1" stroke-opacity="1" fill-opacity="1" x="213.8000030517578" y="60" font-size="16" font-family="Source Code Pro, sans-serif" font-style="normal" font-weight="400" font-variant="normal" fill="#272827" width="347.6000061035156" paint-order="stroke" style="stroke-linecap:butt; stroke-linejoin:miter;" stroke="none" class="message__text">I want to login with "Provider"</text></g><g opacity="1" class="message"><line opacity="1" stroke-width="2" stroke-opacity="1" fill-opacity="1" x1="362.6000061035156" y1="122" x2="45" y2="122" stroke="#272827" stroke-dasharray="3,3" class="message__line"/><path opacity="1" stroke-width="1" stroke-opacity="1" fill-opacity="1" x="36.33974596215562" y="122" fill="#272827" d="M 36.33974596215562 117L 36.33974596215562 127L 45 122Z" stroke="none" transform="matrix(-1,-1.2246467991473532e-16,1.2246467991473532e-16,-1,89.99999999999999,244)"/><text dominant-baseline="text-before-edge" text-anchor="middle" opacity="1" stroke-width="1" stroke-opacity="1" fill-opacity="1" x="203.8000030517578" y="100" font-size="16" font-family="Source Code Pro, sans-serif" font-style="normal" font-weight="400" font-variant="normal" fill="#272827" width="337.6000061035156" paint-order="stroke" style="stroke-linecap:butt; stroke-linejoin:miter;" stroke="none" class="message__text">Go to this URL</text></g><g opacity="1" class="message"><line opacity="1" stroke-width="2" stroke-opacity="1" fill-opacity="1" x1="45" y1="160" x2="858.3999938964844" y2="160" stroke="#272827" class="message__line"/><path opacity="1" stroke-width="1" stroke-opacity="1" fill-opacity="1" x="849.73973985864" y="160" fill="#272827" d="M 849.73973985864 155L 849.73973985864 165L 858.3999938964844 160Z" stroke="none" transform="matrix(1,0,0,1,0,0)"/><text dominant-baseline="text-before-edge" text-anchor="middle" opacity="1" stroke-width="1" stroke-opacity="1" fill-opacity="1" x="451.6999969482422" y="132" font-size="16" font-family="Source Code Pro, sans-serif" font-style="normal" font-weight="400" font-variant="normal" fill="#272827" width="833.3999938964844" paint-order="stroke" style="stroke-linecap:butt; stroke-linejoin:miter;" stroke="none" class="message__text">I want to login to Consumer App</text></g><g opacity="1" class="message"><line opacity="1" stroke-width="2" stroke-opacity="1" fill-opacity="1" x1="853.3999938964844" y1="200" x2="45" y2="200" stroke="#272827" stroke-dasharray="3,3" class="message__line"/><path opacity="1" stroke-width="1" stroke-opacity="1" fill-opacity="1" x="36.33974596215562" y="200" fill="#272827" d="M 36.33974596215562 195L 36.33974596215562 205L 45 200Z" stroke="none" transform="matrix(-1,-1.2246467991473532e-16,1.2246467991473532e-16,-1,89.99999999999997,400)"/><text dominant-baseline="text-before-edge" text-anchor="middle" opacity="1" stroke-width="1" stroke-opacity="1" fill-opacity="1" x="449.1999969482422" y="170" font-size="16" font-family="Source Code Pro, sans-serif" font-style="normal" font-weight="400" font-variant="normal" fill="#272827" width="828.3999938964844" paint-order="stroke" style="stroke-linecap:butt; stroke-linejoin:miter;" stroke="none" class="message__text">Sure, do you want to login with Consumer App?</text></g><g opacity="1" class="message"><line opacity="1" stroke-width="2" stroke-opacity="1" fill-opacity="1" x1="45" y1="232" x2="853.3999938964844" y2="232" stroke="#272827" class="message__line"/><path opacity="1" stroke-width="1" stroke-opacity="1" fill-opacity="1" x="844.73973985864" y="232" fill="#272827" d="M 844.73973985864 227L 844.73973985864 237L 853.3999938964844 232Z" stroke="none" transform="matrix(1,0,0,1,0,0)"/><text dominant-baseline="text-before-edge" text-anchor="middle" opacity="1" stroke-width="1" stroke-opacity="1" fill-opacity="1" x="449.1999969482422" y="210" font-size="16" font-family="Source Code Pro, sans-serif" font-style="normal" font-weight="400" font-variant="normal" fill="#272827" width="828.3999938964844" paint-order="stroke" style="stroke-linecap:butt; stroke-linejoin:miter;" stroke="none" class="message__text">Yes!</text></g><g opacity="1" class="message"><line opacity="1" stroke-width="2" stroke-opacity="1" fill-opacity="1" x1="853.3999938964844" y1="274" x2="45" y2="274" stroke="#272827" stroke-dasharray="3,3" class="message__line"/><path opacity="1" stroke-width="1" stroke-opacity="1" fill-opacity="1" x="36.33974596215562" y="274" fill="#272827" d="M 36.33974596215562 269L 36.33974596215562 279L 45 274Z" stroke="none" transform="matrix(-1,-1.2246467991473532e-16,1.2246467991473532e-16,-1,89.99999999999997,548)"/><text dominant-baseline="text-before-edge" text-anchor="middle" opacity="1" stroke-width="1" stroke-opacity="1" fill-opacity="1" x="449.1999969482422" y="242" font-size="16" font-family="Source Code Pro, sans-serif" font-style="normal" font-weight="400" font-variant="normal" fill="#272827" width="828.3999938964844" paint-order="stroke" style="stroke-linecap:butt; stroke-linejoin:miter;" stroke="none" class="message__text">OK, here's authorization code, go back to this URL</text></g><g opacity="1" class="message"><line opacity="1" stroke-width="2" stroke-opacity="1" fill-opacity="1" x1="45" y1="314" x2="367.6000061035156" y2="314" stroke="#272827" class="message__line"/><path opacity="1" stroke-width="1" stroke-opacity="1" fill-opacity="1" x="358.93975206567126" y="314" fill="#272827" d="M 358.93975206567126 309L 358.93975206567126 319L 367.6000061035156 314Z" stroke="none" transform="matrix(1,0,0,1,0,0)"/><text dominant-baseline="text-before-edge" text-anchor="middle" opacity="1" stroke-width="1" stroke-opacity="1" fill-opacity="1" x="206.3000030517578" y="284" font-size="16" font-family="Source Code Pro, sans-serif" font-style="normal" font-weight="400" font-variant="normal" fill="#272827" width="342.6000061035156" paint-order="stroke" style="stroke-linecap:butt; stroke-linejoin:miter;" stroke="none" class="message__text">Here's my authorization code</text></g><g opacity="1" class="message"><line opacity="1" stroke-width="2" stroke-opacity="1" fill-opacity="1" x1="372.6000061035156" y1="356" x2="858.3999938964844" y2="356" stroke="#272827" class="message__line"/><path opacity="1" stroke-width="1" stroke-opacity="1" fill-opacity="1" x="849.73973985864" y="356" fill="#272827" d="M 849.73973985864 351L 849.73973985864 361L 858.3999938964844 356Z" stroke="none" transform="matrix(1,0,0,1,0,0)"/><text dominant-baseline="text-before-edge" text-anchor="middle" opacity="1" stroke-width="1" stroke-opacity="1" fill-opacity="1" x="615.5" y="324" font-size="16" font-family="Source Code Pro, sans-serif" font-style="normal" font-weight="400" font-variant="normal" fill="#272827" width="505.79998779296875" paint-order="stroke" style="stroke-linecap:butt; stroke-linejoin:miter;" stroke="none" class="message__text">Here's auth code, gimme access token</text></g><g opacity="1" class="message"><line opacity="1" stroke-width="2" stroke-opacity="1" fill-opacity="1" x1="853.3999938964844" y1="398" x2="372.6000061035156" y2="398" stroke="#272827" stroke-dasharray="3,3" class="message__line"/><path opacity="1" stroke-width="1" stroke-opacity="1" fill-opacity="1" x="363.93975206567126" y="398" fill="#272827" d="M 363.93975206567126 393L 363.93975206567126 403L 372.6000061035156 398Z" stroke="none" transform="matrix(-1,-1.2246467991473532e-16,1.2246467991473532e-16,-1,745.2000122070312,796)"/><text dominant-baseline="text-before-edge" text-anchor="middle" opacity="1" stroke-width="1" stroke-opacity="1" fill-opacity="1" x="613" y="366" font-size="16" font-family="Source Code Pro, sans-serif" font-style="normal" font-weight="400" font-variant="normal" fill="#272827" width="500.79998779296875" paint-order="stroke" style="stroke-linecap:butt; stroke-linejoin:miter;" stroke="none" class="message__text">Auth code is legit, here's access token for User</text></g><g opacity="1" class="message"><line opacity="1" stroke-width="2" stroke-opacity="1" fill-opacity="1" x1="362.6000061035156" y1="440" x2="45" y2="440" stroke="#272827" stroke-dasharray="3,3" class="message__line"/><path opacity="1" stroke-width="1" stroke-opacity="1" fill-opacity="1" x="36.33974596215562" y="440" fill="#272827" d="M 36.33974596215562 435L 36.33974596215562 445L 45 440Z" stroke="none" transform="matrix(-1,-1.2246467991473532e-16,1.2246467991473532e-16,-1,89.99999999999994,880)"/><text dominant-baseline="text-before-edge" text-anchor="middle" opacity="1" stroke-width="1" stroke-opacity="1" fill-opacity="1" x="203.8000030517578" y="408" font-size="16" font-family="Source Code Pro, sans-serif" font-style="normal" font-weight="400" font-variant="normal" fill="#272827" width="337.6000061035156" paint-order="stroke" style="stroke-linecap:butt; stroke-linejoin:miter;" stroke="none" class="message__text">OK, you're logged in!</text></g><g opacity="1" class="actor"><g opacity="1"><circle opacity="1" stroke-width="1.5" stroke-opacity="1" fill-opacity="1" cx="40" cy="467.8" r="7.8" width="54.599999999999994" height="39" stroke="#4492FD" fill="#8BBBFD"/><path opacity="1" stroke-width="1.5" stroke-opacity="1" fill-opacity="1" d="M 28.3 482.1L 51.7 482.1M 40 475.6L 40 487.3l -7.8 15.6l 7.8 -15.6l 7.8 15.6" stroke="#4492FD" fill="none"/></g><text dominant-baseline="central" text-anchor="middle" opacity="1" stroke-width="1" stroke-opacity="1" fill-opacity="1" x="40" y="508.5" font-size="16" font-family="Source Code Pro, sans-serif" font-style="normal" font-weight="400" font-variant="normal" fill="#272827" paint-order="stroke" style="stroke-linecap:butt; stroke-linejoin:miter;" stroke="none">User</text></g><g opacity="1" class="actor"><path opacity="1" stroke-width="1" stroke-opacity="1" fill-opacity="1" d="M 304.00000762939453,460 l 127.19999694824219,0 a 4,4,0,0,1,4,4 l 0,42 a 4,4,0,0,1,-4,4 l -127.19999694824219,0 a 4,4,0,0,1,-4,-4 l 0,-42 a 4,4,0,0,1,4,-4 z" fill="#8BBBFD" stroke="#4492FD"/><text dominant-baseline="central" text-anchor="middle" opacity="1" stroke-width="1" stroke-opacity="1" fill-opacity="1" x="367.6000061035156" y="485" font-size="16" font-family="Source Code Pro, sans-serif" font-style="normal" font-weight="400" font-variant="normal" fill="#272827" paint-order="stroke" style="stroke-linecap:butt; stroke-linejoin:miter;" stroke="none">Consumer App</text></g><g opacity="1" class="actor"><path opacity="1" stroke-width="1" stroke-opacity="1" fill-opacity="1" d="M 813.9999923706055,460 l 88.80000305175781,0 a 4,4,0,0,1,4,4 l 0,42 a 4,4,0,0,1,-4,4 l -88.80000305175781,0 a 4,4,0,0,1,-4,-4 l 0,-42 a 4,4,0,0,1,4,-4 z" fill="#8BBBFD" stroke="#4492FD"/><text dominant-baseline="central" text-anchor="middle" opacity="1" stroke-width="1" stroke-opacity="1" fill-opacity="1" x="858.3999938964844" y="485" font-size="16" font-family="Source Code Pro, sans-serif" font-style="normal" font-weight="400" font-variant="normal" fill="#272827" paint-order="stroke" style="stroke-linecap:butt; stroke-linejoin:miter;" stroke="none">Provider</text></g></g></svg>